<svg xmlns="http://www.w3.org/2000/svg" viewBox="0 0 96 96" fill="none">
  <defs>
    <linearGradient id="grad" x1="12" y1="12" x2="84" y2="84" gradientUnits="userSpaceOnUse">
      <stop offset="0" stop-color="#5EEAD4" />
      <stop offset="1" stop-color="#6366F1" />
    </linearGradient>
    <filter id="shadow" x="-20%" y="-20%" width="140%" height="140%" color-interpolation-filters="sRGB">
      <feDropShadow dx="0" dy="4" stdDeviation="6" flood-color="#0F172A" flood-opacity="0.25" />
    </filter>
  </defs>
  <rect x="8" y="8" width="80" height="80" rx="24" fill="url(#grad)" filter="url(#shadow)" />
  <path fill="#F8FAFC" d="M60.6 27.8c-6.4-4.9-16-3.5-21.1 2.9l-1.4 1.8-3-.6c-5.2-1-10 2.9-10 8.3 0 3.9 2.7 7.3 6.5 8.1l3.6.7-.5 2.4c-1.5 7 2.9 14 9.9 15.5 5.2 1.1 10.5-1.4 13.1-6.1l1.4-2.5 2.8.6c6.7 1.4 12.6-4.1 12.6-10.8 0-4.1-2.3-7.8-6-9.6l-2.5-1.2.3-2.7c.6-5.6-2.1-11-6.7-14.1ZM41 44.2c0-3.3 2.7-6 6-6 3.3 0 6 2.7 6 6s-2.7 6-6 6c-3.3 0-6-2.7-6-6Zm29 7.2c0 2.3-1.6 4.2-3.8 4.7l-6.1 1.3-2.7 5c-1 1.9-3.3 2.9-5.4 2.5-3.3-.7-5.4-3.9-4.7-7.1l1.1-5.1-4.9-.9c-2.2-.4-3.7-2.3-3.7-4.5 0-2.3 1.9-4.2 4.2-4.2h1.7l3.1-3.9c1.5-1.9 4.2-2.2 6-.7l.1.1 4.2 3.7 5.2-1.1c2.2-.5 4.4.9 4.9 3.2.1.4.1.8.1 1.2Z"/>
</svg>
