<svg width="24" height="24" viewBox="0 0 24 24" fill="none" xmlns="http://www.w3.org/2000/svg">
  <path d="M12.5 2.75c-2.9 0-5.25 2.35-5.25 5.25 0 1.45.58 2.77 1.52 3.72-1.52.97-2.52 2.64-2.52 4.53 0 3 2.45 5.45 5.45 5.45h2.55c3.38 0 6.1-2.72 6.1-6.1 0-1.43-.5-2.75-1.33-3.78.53-.7.83-1.56.83-2.47 0-2.3-1.87-4.17-4.17-4.17-.74 0-1.43.2-2.03.54-.49-1.65-2.01-2.97-3.97-2.97Zm.33 3.3c1.11 0 2.02.91 2.02 2.02s-.91 2.02-2.02 2.02-2.02-.91-2.02-2.02.91-2.02 2.02-2.02Zm-1.1 6.53c.36.1.74.16 1.13.16 1.22 0 2.34-.44 3.22-1.18.6.3 1.02.92 1.02 1.64 0 1.01-.82 1.83-1.83 1.83h-1.51c-.65 0-1.18.53-1.18 1.18s.53 1.18 1.18 1.18h1.94c1.08 0 1.95.87 1.95 1.95 0 1.08-.87 1.95-1.95 1.95h-2.55c-1.67 0-3.03-1.36-3.03-3.03 0-1.57 1.19-2.86 2.72-3.02-.47-.43-.77-1.04-.77-1.72 0-.19.02-.37.06-.54Z" fill="url(#paint0_linear)"/>
  <defs>
    <linearGradient id="paint0_linear" x1="6" y1="4" x2="18.5" y2="20" gradientUnits="userSpaceOnUse">
      <stop stop-color="#6366F1"/>
      <stop offset="1" stop-color="#14B8A6"/>
    </linearGradient>
  </defs>
</svg>
